PathFileType	4	(X/Y/Z)	C:\Users\Basilio\Documents\Thesis Gigler\squatting_fais\c3dfiles\073\SLS_back_pre5\markers_experimental.trc
DataRate	CameraRate	NumFrames	NumMarkers	Units	OrigDataRate	OrigDataStartFrame	OrigNumFrames
200.000000	200.000000	4	61	mm	200.000000	577	1539
Frame#	Time	FHD			LBHD			RBHD			C7			T10			CLAV			LSHO			LUUPA			LMUPA			LDUPA			LLEP			LMEP			LRAD			LUL			LRFIN			RSHO			RUPA1			RMUPA			RDUPA			RLEP			RMEP			RUL			RUFIN			LASI			RASI			USACR			LSACR			RSACR			LTHI1			LTHI2			LTHI3			LTHI4			LLFC			LTIB1			LTIB2			LTIB3			LTIB4			LLMAL			LMMAL			LHEE			LMT1			LMT2			LMT5			RTHI			RTHI2			RTHI3			RTHI4			RLFC			RMFC			RTIB1			RTIB2			RTIB3			RTIB4			RLMAL			RMMAL			RHEE			RMT1			RMT2			RMT5			LMFC			RRAD			
		X1	Y1	Z1	X2	Y2	Z2	X3	Y3	Z3	X4	Y4	Z4	X5	Y5	Z5	X6	Y6	Z6	X7	Y7	Z7	X8	Y8	Z8	X9	Y9	Z9	X10	Y10	Z10	X11	Y11	Z11	X12	Y12	Z12	X13	Y13	Z13	X14	Y14	Z14	X15	Y15	Z15	X16	Y16	Z16	X17	Y17	Z17	X18	Y18	Z18	X19	Y19	Z19	X20	Y20	Z20	X21	Y21	Z21	X22	Y22	Z22	X23	Y23	Z23	X24	Y24	Z24	X25	Y25	Z25	X26	Y26	Z26	X27	Y27	Z27	X28	Y28	Z28	X29	Y29	Z29	X30	Y30	Z30	X31	Y31	Z31	X32	Y32	Z32	X33	Y33	Z33	X34	Y34	Z34	X35	Y35	Z35	X36	Y36	Z36	X37	Y37	Z37	X38	Y38	Z38	X39	Y39	Z39	X40	Y40	Z40	X41	Y41	Z41	X42	Y42	Z42	X43	Y43	Z43	X44	Y44	Z44	X45	Y45	Z45	X46	Y46	Z46	X47	Y47	Z47	X48	Y48	Z48	X49	Y49	Z49	X50	Y50	Z50	X51	Y51	Z51	X52	Y52	Z52	X53	Y53	Z53	X54	Y54	Z54	X55	Y55	Z55	X56	Y56	Z56	X57	Y57	Z57	X58	Y58	Z58	X59	Y59	Z59	X60	Y60	Z60	X61	Y61	Z61	

578	2.885	-22.24044799804688	1400.335083007813	-745.7918701171876	-157.9723510742188	1378.3955078125	-771.0313720703127	-182.3959350585938	1360.888793945313	-637.7602539062501	-214.5011596679688	1288.681884765625	-701.4480590820314	-416.9279785156251	1029.185180664063	-730.5463256835939	-127.7778396606446	1163.546264648438	-703.1971435546876	-135.6992797851563	1238.796020507813	-832.3425903320315	-69.67566680908205	1167.30615234375	-938.0391845703127	-26.54368972778321	1177.337036132813	-913.9466552734377	-12.99400711059571	1131.740112304688	-952.6943359375002	87.00210571289064	1092.9306640625	-960.484313964844	76.74423217773439	1035.297729492188	-920.483093261719	343.3329162597657	1091.870727539063	-837.877624511719	350.1468505859376	1091.250244140625	-912.2053222656252	426.3214721679689	1092.638427734375	-827.9041748046877	-128.7279205322266	1219.492065429688	-568.0979614257814	-57.57164001464845	1113.910522460938	-465.5748901367189	-16.02342796325684	1130.760620117188	-482.9183959960939	1.48775577545166	1078.251831054688	-460.3150634765626	91.62718200683595	1051.645751953125	-460.8992614746095	82.76189422607423	998.9332275390627	-524.2280273437501	353.7571105957032	1080.09033203125	-511.6103820800782	432.4937133789064	1093.412353515625	-591.8959960937501	-351.4964294433594	803.4863281250002	-851.400329589844	-347.0332946777344	834.934753417969	-612.0930175781251	-493.2949218750001	942.2942504882815	-730.4082031250001	-514.1578369140626	918.007995605469	-756.0324707031251	-519.7118530273439	923.0017700195315	-699.4539794921876	-428.6610107421876	500.5570678710939	-908.228698730469	-397.4966430664064	422.6048583984376	-892.5781860351565	-356.1271057128907	423.2171020507814	-865.8264770507815	-432.2240600585939	373.8636779785157	-881.5842895507815	-448.2059020996095	331.9393310546876	-881.8762207031252	-617.5800170898439	260.1554870605469	-829.9602050781252	-661.0520019531251	315.7211303710938	-882.510925292969	-665.6945800781251	276.7880859375001	-860.920837402344	-743.4797973632814	274.5906677246094	-827.2216796875002	-863.1762695312502	332.2019042968751	-851.983825683594	-835.6192016601565	322.4404602050782	-767.6583862304689	-884.9783935546877	395.7569885253907	-809.951599121094	-915.4222412109377	176.9206085205078	-761.6199340820314	-917.939147949219	172.9261474609375	-801.2659912109377	-942.2308349609377	207.851058959961	-853.5928344726565	-342.3451538085938	652.9585571289064	-537.2489013671876	-278.8912963867188	634.2318115234376	-543.3162231445314	-254.9742736816407	655.6430053710939	-550.2079467773439	-251.7363433837891	557.4760131835939	-566.0563964843751	-167.6228485107422	453.390350341797	-602.5469970703126	-167.5531158447266	460.5511474609376	-729.1643676757814	-186.3050384521485	308.1394653320313	-711.6143798828126	-239.1427612304688	235.8283996582032	-651.6876831054689	-221.3298034667969	229.8577270507813	-695.1777343750001	-260.2246398925782	203.0749053955079	-729.0923461914064	-353.0036926269532	92.11415863037111	-685.2315673828126	-343.4000854492188	129.7628784179688	-768.959899902344	-430.5488891601564	81.27324676513673	-742.9807128906251	-206.3038024902344	57.2155113220215	-759.0560302734376	-206.0880126953126	51.7041473388672	-717.9958496093751	-248.6376647949219	33.56774902343751	-669.6951904296876	-452.9465942382814	330.0362854003907	-745.6248168945314	341.8046569824219	1072.59765625	-585.9266357421876	
579	2.89	-21.66445922851563	1399.43896484375	-745.9577026367189	-157.588119506836	1377.21240234375	-771.085388183594	-181.9818572998047	1359.893432617188	-637.7872924804689	-214.0641021728516	1287.639282226563	-701.6401367187501	-416.7727661132814	1028.435546875	-730.5893554687501	-127.6121444702149	1162.311645507813	-703.2716674804689	-135.1626434326172	1237.673095703125	-832.338073730469	-69.2347869873047	1166.16845703125	-937.9700927734377	-26.19302368164063	1176.0947265625	-913.862976074219	-12.1198148727417	1130.8408203125	-952.8175048828127	87.49690246582033	1091.8505859375	-960.3402099609377	77.08025360107423	1033.967895507813	-920.2961425781252	343.6459350585938	1090.712524414063	-837.7912597656252	350.4648437500001	1089.994995117188	-912.0291137695315	426.7338867187501	1091.498168945313	-827.6195068359377	-128.3731842041016	1218.49560546875	-568.0781250000001	-57.28418731689455	1112.95068359375	-465.5953979492189	-15.6953411102295	1129.823120117188	-483.0696105957032	1.797901034355164	1077.299194335938	-460.2629699707032	92.01819610595705	1050.769287109375	-460.872528076172	83.00599670410158	997.9123535156252	-524.2208862304689	354.0970764160157	1079.04150390625	-511.6354980468751	432.827850341797	1092.287475585938	-592.0531005859376	-351.7091674804688	802.748474121094	-851.335144042969	-347.0634155273438	834.0977783203127	-612.0777587890626	-493.1817932128907	941.5317993164065	-730.3375854492189	-514.1220703125001	917.350280761719	-755.9787597656251	-519.6390991210939	922.4595947265627	-699.4460449218751	-428.722137451172	499.6159057617189	-908.2104492187502	-397.6759338378907	421.6687927246095	-892.3106689453127	-356.3358154296876	422.1708374023439	-865.076843261719	-432.2781677246095	373.1104431152344	-881.4968261718752	-448.3227844238282	331.1468811035157	-881.758483886719	-617.8126220703126	259.4948730468751	-829.9080200195315	-661.2727661132814	315.0851440429688	-882.6859130859377	-665.8283691406251	276.0554199218751	-860.9010009765627	-743.7369995117189	274.0825500488282	-827.213317871094	-863.2844238281252	331.7354431152344	-852.0172119140627	-835.7591552734377	322.0051879882813	-767.7758178710939	-885.078308105469	395.3904113769532	-810.083679199219	-915.7112426757815	176.6246490478516	-761.6226196289064	-918.2877197265627	172.5964508056641	-801.5186157226565	-942.5135498046877	207.6848449707032	-853.867614746094	-342.2904052734376	652.4992065429689	-537.1519165039064	-278.8529357910157	633.8670654296876	-543.4105224609376	-254.9491271972657	655.3356323242189	-550.1578369140626	-251.5526885986329	557.1992797851564	-565.9708862304689	-167.3390808105469	453.214080810547	-602.5882568359376	-167.4740753173828	460.3371582031251	-729.2276611328126	-186.1501922607422	308.0386657714844	-711.6293945312501	-239.0578918457032	235.7518920898438	-651.7250976562501	-221.2410888671876	229.7828216552735	-695.2079467773439	-260.0908508300782	203.0331268310547	-729.1936645507814	-353.0066223144532	92.07955932617189	-685.2255249023439	-343.4048461914063	129.7193908691407	-768.985290527344	-430.5633850097657	81.25467681884767	-742.9824218750001	-206.2754058837891	57.20420455932619	-759.0385131835939	-206.0837402343751	51.71072387695314	-717.9895019531251	-248.6654205322266	33.57014083862305	-669.6794433593751	-453.1664428710939	329.2317810058594	-745.5587768554689	342.2043457031251	1071.202026367188	-586.3107910156251	
580	2.895	-21.34594345092774	1398.164794921875	-745.9547119140626	-157.1808319091797	1376.104736328125	-771.2061157226565	-181.6285552978516	1358.766357421875	-637.8358154296876	-213.6480712890626	1286.546630859375	-701.6452636718751	-416.6732177734376	1027.605590820313	-730.6002197265626	-127.1429672241211	1161.278442382813	-703.2365722656251	-134.8218994140625	1236.493286132813	-832.402770996094	-68.80660247802736	1164.873291015625	-938.0694580078127	-25.75554466247559	1175.001098632813	-913.803161621094	-11.75781154632569	1129.566528320313	-952.7653808593752	87.69438934326173	1090.427856445313	-960.3601684570315	77.3859100341797	1032.850219726563	-920.321716308594	344.0438537597657	1089.522827148438	-837.559509277344	350.8324279785157	1088.750854492188	-911.8328247070315	427.0364990234376	1090.332641601563	-827.4917602539065	-127.9905776977539	1217.515258789063	-568.2189331054689	-56.92256546020509	1112.072631835938	-465.5758666992189	-15.33758068084717	1128.886840820313	-483.0510559082032	2.224267959594727	1076.417358398438	-460.2155761718751	92.37180328369142	1049.830444335938	-460.886932373047	83.3010711669922	996.9311523437502	-524.2640991210939	354.3472900390626	1078.052001953125	-511.7173461914064	433.0758361816407	1091.181030273438	-592.1843872070314	-351.7178649902344	801.8560180664065	-851.239685058594	-347.1497802734376	833.449157714844	-611.9616699218751	-493.2769470214845	940.8579101562502	-730.3460083007814	-514.0579223632814	916.6068115234377	-755.9487304687501	-519.7167968750001	921.8162231445315	-699.4674072265626	-428.7408447265626	498.7663879394532	-908.1184692382815	-397.7277221679689	420.8481750488282	-892.190856933594	-356.4624328613282	421.341766357422	-864.8033447265627	-432.4860229492189	372.3200378417969	-881.4136352539065	-448.4812927246095	330.2872924804688	-881.6655883789065	-617.8203735351564	258.9966430664063	-829.6147460937502	-661.2818603515626	314.5022583007813	-882.544860839844	-666.0281372070314	275.4914245605469	-860.9870605468752	-743.8497924804689	273.4705505371094	-827.1668090820315	-863.3372802734377	331.3387145996094	-852.232116699219	-835.955017089844	321.6124572753907	-767.8250122070314	-885.1177368164065	395.0203552246095	-810.2229003906252	-915.463562011719	176.2669219970703	-762.4508666992189	-917.6755371093752	172.6912841796875	-802.3764648437502	-942.8189697265627	207.3787384033204	-853.6499633789065	-342.1784362792969	652.1054077148439	-537.1019287109376	-278.7609558105469	633.5138549804689	-543.3558959960939	-254.8992462158204	655.0491333007814	-550.1015014648439	-251.3799438476563	556.8849487304689	-565.9522094726564	-167.0660400390625	453.0108337402345	-602.6632080078126	-167.31298828125	460.2093200683595	-729.2073364257814	-186.0308532714844	307.8993530273438	-711.6889648437501	-238.9446411132813	235.6834869384766	-651.7606201171876	-221.1457061767579	229.7101135253907	-695.2319946289064	-260.0060424804688	203.0077362060547	-729.1085815429689	-353.0065917968751	92.08367156982423	-685.2116699218751	-343.4206848144532	129.7396697998047	-768.9284667968752	-430.5483703613282	81.27962493896486	-742.9716186523439	-206.3078308105469	57.22740554809572	-759.0585327148439	-206.0654754638672	51.72439193725587	-717.9313354492189	-248.6695404052735	33.54686355590821	-669.7106323242189	-453.4345092773439	328.4272766113282	-745.4691162109376	342.4344787597657	1070.434326171875	-586.2924194335939	
581	2.9	-20.97738838195801	1397.050537109375	-745.9957275390626	-156.8533172607422	1374.961669921875	-771.2935180664065	-181.1603088378907	1357.647705078125	-637.8762817382814	-213.2089996337891	1285.4833984375	-701.7166748046876	-416.538543701172	1026.865112304688	-730.6503906250001	-126.7873001098633	1159.999755859375	-703.3271484375001	-134.4966125488282	1235.424194335938	-832.4169921875002	-68.20226287841798	1163.807006835938	-938.0377197265627	-25.34271049499512	1173.857666015625	-913.8013305664065	-11.94742870330811	1128.128784179688	-952.5654296875002	88.00537109375001	1089.290161132813	-960.1902465820315	77.72826385498048	1031.661376953125	-919.9217529296877	344.3685607910157	1088.351440429688	-837.4814453125002	351.1848449707032	1087.604736328125	-911.698913574219	427.4730224609376	1089.178833007813	-827.3303833007815	-127.5759353637696	1216.564697265625	-568.3370361328126	-56.50685501098634	1111.200317382813	-465.6313781738282	-14.96452140808106	1127.968383789063	-483.0923461914064	2.508153676986695	1075.553833007813	-460.2852478027345	92.66699981689455	1048.842651367188	-460.885711669922	83.67002105712892	995.973327636719	-524.2349243164064	354.6596679687501	1077.016479492188	-511.8374328613282	433.390350341797	1090.098022460938	-592.1948242187501	-351.8719482421876	800.8262329101565	-851.3804931640627	-347.0289916992188	832.929870605469	-612.0780029296876	-493.3424377441407	940.283630371094	-730.4025268554689	-514.2926635742189	915.913269042969	-755.9001464843751	-519.7628173828126	921.0877075195315	-699.3905639648439	-428.8192749023439	497.9115600585939	-908.0259399414065	-397.7845153808595	420.2217712402345	-892.1917724609377	-356.6555786132813	420.5830383300782	-864.5922851562502	-432.626678466797	371.5119323730469	-881.2668457031252	-448.560028076172	329.4411621093751	-881.5673828125002	-618.0238037109376	258.4396667480469	-829.5156250000002	-661.3000488281251	313.7503967285157	-882.3035888671877	-666.1489868164064	274.8658142089844	-860.967712402344	-744.0068359375001	272.8776550292969	-827.4599609375002	-863.5130004882815	330.8840332031251	-852.437927246094	-836.067077636719	321.1948852539063	-767.9033203125001	-885.164001464844	394.6375732421876	-810.3826293945315	-915.765075683594	175.9053039550782	-762.5598144531251	-917.996765136719	172.3757629394532	-802.4736328125002	-943.127624511719	207.0466766357422	-853.7158813476565	-342.1533508300782	651.6211547851564	-536.9618530273439	-278.6869201660157	633.1525268554689	-543.3133544921876	-254.8572082519532	654.7143554687501	-550.1400756835939	-251.2086334228516	556.6110839843751	-565.8985595703126	-166.8150634765625	452.863494873047	-602.6976928710939	-167.1228942871094	460.0527954101564	-729.1871337890626	-185.8198394775391	307.7850341796876	-711.7399902343751	-238.8214263916016	235.6446685791016	-651.7520751953126	-221.0607910156251	229.6411132812501	-695.2275390625001	-259.9949340820313	202.9355621337891	-729.0858154296876	-353.0090026855469	92.08300018310548	-685.2094116210939	-343.3804931640626	129.735595703125	-768.894226074219	-430.5459899902345	81.30115509033205	-742.9468383789064	-206.2578430175782	57.25542068481447	-759.0610961914064	-206.091293334961	51.68818283081056	-717.9783935546876	-248.6651458740235	33.53922653198243	-669.6763916015626	-453.6105041503907	327.6739196777344	-745.4246826171876	342.8283996582032	1069.298583984375	-586.4337158203126	
